<svg width="117" height="129" viewBox="0 0 117 129" fill="none" xmlns="http://www.w3.org/2000/svg">
<path d="M111.517 46.4596L70.0478 38.6499L75.3314 10.594L26.9074 42.4655C17.5215 48.4187 10.5796 57.9259 8.40011 69.499C4.13502 92.1463 19.686 114.083 43.1364 118.5C66.5867 122.916 89.052 108.138 93.3171 85.4911C94.9636 76.7482 93.6493 68.122 90.0741 60.5598L111.511 46.4585L111.517 46.4596Z" fill="#51FFD6"/>
<path d="M79.8011 82.4662C81.064 75.7598 80.7051 69.0324 78.8033 63.7639C76.9015 58.4955 73.6125 55.1175 69.6599 54.3731C65.7073 53.6287 61.4149 55.5789 57.7269 59.7947C54.0389 64.0105 51.2575 70.1465 49.9945 76.8529L64.8978 79.6596L79.8011 82.4662Z" fill="white"/>
<ellipse cx="72.1265" cy="81.0211" rx="7.80835" ry="18.2457" transform="rotate(10.6654 72.1265 81.0211)" fill="#BAC5FF" stroke="black" stroke-width="1.07509"/>
<path fill-rule="evenodd" clip-rule="evenodd" d="M78.0731 88.8208C78.7804 86.8815 79.3711 84.7408 79.7993 82.4672C81.6642 72.5645 79.7405 63.8897 75.5026 63.0916C71.2646 62.2935 66.3173 69.6742 64.4523 79.5769C64.0241 81.8506 63.7957 84.0595 63.7491 86.1232C66.2006 81.7525 69.3974 79.1902 72.3655 79.7492C75.3336 80.3082 77.3794 83.8578 78.0731 88.8208Z" fill="black"/>
<path d="M78.0731 88.8208L77.5407 88.8952L78.5781 89.005L78.0731 88.8208ZM63.7491 86.1232L63.2117 86.111L64.2179 86.3861L63.7491 86.1232ZM79.271 82.3677C78.848 84.6137 78.2649 86.726 77.5681 88.6366L78.5781 89.005C79.2958 87.0371 79.8941 84.8679 80.3275 82.5667L79.271 82.3677ZM75.4031 63.6199C76.2837 63.7857 77.0888 64.3668 77.782 65.369C78.477 66.3738 79.0353 67.7706 79.4147 69.4815C80.173 72.9013 80.1933 77.4702 79.271 82.3677L80.3275 82.5667C81.2701 77.5614 81.261 72.8416 80.4643 69.2488C80.0661 67.4534 79.4655 65.913 78.6662 64.7574C77.865 63.5991 76.8404 62.7966 75.602 62.5633L75.4031 63.6199ZM64.9806 79.6764C65.9029 74.779 67.5838 70.5304 69.5341 67.6208C70.5098 66.1651 71.538 65.067 72.5509 64.3838C73.5611 63.7025 74.5225 63.454 75.4031 63.6199L75.602 62.5633C74.3637 62.3301 73.1174 62.705 71.9498 63.4925C70.7848 64.2782 69.665 65.4946 68.6411 67.0222C66.592 70.0791 64.8667 74.4722 63.9241 79.4775L64.9806 79.6764ZM64.2865 86.1353C64.3324 84.1021 64.5576 81.9224 64.9806 79.6764L63.9241 79.4775C63.4907 81.7787 63.259 84.0168 63.2117 86.111L64.2865 86.1353ZM64.2179 86.3861C65.4199 84.2431 66.7878 82.5754 68.1879 81.5163C69.587 80.4579 70.9771 80.0347 72.266 80.2775L72.465 79.221C70.7858 78.9047 69.0935 79.4832 67.5393 80.6589C65.986 81.8338 64.5297 83.6326 63.2803 85.8602L64.2179 86.3861ZM72.266 80.2775C73.5549 80.5202 74.6959 81.4201 75.6142 82.9149C76.5331 84.4107 77.2006 86.4617 77.5407 88.8952L78.6055 88.7464C78.2519 86.2169 77.5496 84.0116 76.5302 82.3521C75.5101 80.6916 74.1442 79.5372 72.465 79.221L72.266 80.2775Z" fill="black"/>
<ellipse cx="72.1258" cy="81.0211" rx="3.5194" ry="8.22373" transform="rotate(10.6654 72.1258 81.0211)" fill="black" stroke="black" stroke-width="1.07509"/>
<path d="M79.7783 83.0945C82.4849 68.7228 78.0065 55.8157 69.7755 54.2656C61.5446 52.7155 52.6779 63.1094 49.9714 77.4811C48.5826 84.8553 49.2751 88.9171 49.795 90.0262" stroke="black" stroke-width="1.07509" stroke-linecap="round"/>
<path d="M50.0052 76.851C50.6305 73.5303 50.8643 70.1696 50.6931 66.9606C50.5219 63.7517 49.9491 60.7574 49.0074 58.1487C48.0657 55.54 46.7736 53.368 45.2047 51.7567C43.6359 50.1455 41.8211 49.1264 39.864 48.7578C37.9069 48.3893 35.8457 48.6784 33.7982 49.6086C31.7508 50.5388 29.7571 52.092 27.931 54.1795C26.1049 56.2669 24.4821 58.8477 23.1554 61.7746C21.8287 64.7014 20.824 67.917 20.1986 71.2377L35.1019 74.0443L50.0052 76.851Z" fill="white"/>
<path d="M49.8903 77.4617C52.5969 63.09 48.1185 50.1828 39.8876 48.6327C31.6566 47.0826 22.79 57.4766 20.0834 71.8483C18.6947 79.2225 19.3872 83.2842 19.9071 84.3933" stroke="black" stroke-width="1.07509" stroke-linecap="round"/>
<ellipse cx="42.3282" cy="75.4058" rx="7.80835" ry="18.2457" transform="rotate(10.6654 42.3282 75.4058)" fill="#BAC5FF" stroke="black" stroke-width="1.07509"/>
<path fill-rule="evenodd" clip-rule="evenodd" d="M48.2732 83.2057C48.9806 81.2664 49.5713 79.1256 49.9995 76.8519C51.8644 66.9492 49.9407 58.2745 45.7028 57.4764C41.4648 56.6782 36.5175 64.059 34.6525 73.9617C34.2243 76.2353 33.9959 78.4442 33.9493 80.5079C36.4007 76.1374 39.5976 73.5751 42.5656 74.1341C45.5337 74.693 47.5795 78.2427 48.2732 83.2057Z" fill="black"/>
<path d="M48.2732 83.2057L47.7409 83.2802L48.7783 83.3899L48.2732 83.2057ZM33.9493 80.5079L33.4119 80.4958L34.4181 80.7709L33.9493 80.5079ZM49.4712 76.7524C49.0482 78.9985 48.4651 81.1109 47.7682 83.0216L48.7783 83.3899C49.496 81.4219 50.0943 79.2528 50.5277 76.9514L49.4712 76.7524ZM45.6033 58.0046C46.4839 58.1705 47.289 58.7516 47.9822 59.7537C48.6772 60.7585 49.2355 62.1554 49.6149 63.8663C50.3732 67.286 50.3935 71.855 49.4712 76.7524L50.5277 76.9514C51.4703 71.9462 51.4612 67.2264 50.6645 63.6335C50.2663 61.8381 49.6657 60.2978 48.8663 59.1421C48.0652 57.9839 47.0406 57.1813 45.8022 56.9481L45.6033 58.0046ZM35.1808 74.0612C36.1031 69.1637 37.7839 64.9151 39.7343 62.0055C40.71 60.5498 41.7382 59.4517 42.7511 58.7686C43.7613 58.0872 44.7227 57.8388 45.6033 58.0046L45.8022 56.9481C44.5639 56.7149 43.3176 57.0898 42.15 57.8773C40.985 58.663 39.8652 59.8793 38.8413 61.4069C36.7922 64.4638 35.0669 68.857 34.1243 73.8622L35.1808 74.0612ZM34.4867 80.52C34.5326 78.4869 34.7578 76.3072 35.1808 74.0612L34.1243 73.8622C33.6909 76.1635 33.4592 78.4016 33.4119 80.4958L34.4867 80.52ZM34.4181 80.7709C35.6201 78.6279 36.9879 76.9602 38.388 75.9011C39.7871 74.8428 41.1773 74.4196 42.4661 74.6623L42.6651 73.6058C40.9859 73.2896 39.2936 73.8681 37.7394 75.0437C36.1862 76.2186 34.7299 78.0174 33.4804 80.2449L34.4181 80.7709ZM42.4661 74.6623C43.755 74.9051 44.896 75.8049 45.8143 77.2998C46.7332 78.7956 47.4007 80.8466 47.7409 83.2802L48.8056 83.1313C48.4521 80.6018 47.7498 78.3965 46.7304 76.737C45.7103 75.0765 44.3443 73.9221 42.6651 73.6058L42.4661 74.6623Z" fill="black"/>
<ellipse cx="42.3277" cy="75.4068" rx="3.5194" ry="8.22373" transform="rotate(10.6654 42.3277 75.4068)" fill="black" stroke="black" stroke-width="1.07509"/>
<path d="M44.8938 61.7848C44.0743 66.1362 45.6283 70.0832 48.3663 70.5989C45.6294 70.0835 42.7453 73.1929 41.9255 77.5461C42.745 73.1946 41.191 69.2476 38.453 68.732C41.1899 69.2474 44.074 66.138 44.8938 61.7848Z" fill="white"/>
<path d="M45.2566 59.858L44.8938 61.7848M44.8938 61.7848C44.0743 66.1362 45.6283 70.0832 48.3663 70.5989M44.8938 61.7848C44.074 66.138 41.1899 69.2474 38.453 68.732M48.3663 70.5989L49.5782 70.8271M48.3663 70.5989C45.6294 70.0835 42.7453 73.1929 41.9255 77.5461M41.9255 77.5461L41.5627 79.4729M41.9255 77.5461C42.745 73.1946 41.191 69.2476 38.453 68.732M38.453 68.732L37.2411 68.5037" stroke="white" stroke-width="1.07509" stroke-miterlimit="10"/>
<path d="M74.6938 67.3971C73.8743 71.7485 75.4283 75.6956 78.1663 76.2112C75.4294 75.6958 72.5454 78.8052 71.7256 83.1584C72.5451 78.8069 70.9911 74.8599 68.2531 74.3443C70.99 74.8597 73.874 71.7503 74.6938 67.3971Z" fill="white"/>
<path d="M75.0567 65.4703L74.6938 67.3971M74.6938 67.3971C73.8743 71.7485 75.4283 75.6956 78.1663 76.2112M74.6938 67.3971C73.874 71.7503 70.99 74.8597 68.2531 74.3443M78.1663 76.2112L79.3782 76.4394M78.1663 76.2112C75.4294 75.6958 72.5454 78.8052 71.7256 83.1584M71.7256 83.1584L71.3627 85.0852M71.7256 83.1584C72.5451 78.8069 70.9911 74.8599 68.2531 74.3443M68.2531 74.3443L67.0412 74.116" stroke="white" stroke-width="1.07509" stroke-miterlimit="10"/>
</svg>
