<svg width="94" height="103" viewBox="0 0 94 103" fill="none" xmlns="http://www.w3.org/2000/svg">
<path d="M93.1434 43.7711C91.7404 19.7566 71.6197 0.714844 47.0001 0.714844C22.3805 0.714844 0.773926 21.1916 0.773926 46.4537C0.773926 71.7158 21.4688 92.1926 47.0001 92.1926C57.5725 92.1926 67.3043 88.6724 75.0886 82.7684L93.2262 100.715V43.695L93.1434 43.7653V43.7711Z" fill="#51FFD6" stroke="#51FFD6" stroke-width="1.11484"/>
<path d="M78.446 47.8885C78.446 43.7957 77.8911 39.7578 76.8242 36.0872C75.7573 32.4165 74.2071 29.2114 72.2933 26.7199C70.3796 24.2284 68.1538 22.5172 65.7879 21.7188C63.4221 20.9203 60.9797 21.056 58.6497 22.1152C56.3198 23.1745 54.1646 25.129 52.351 27.8276C50.5375 30.5261 49.1141 33.8964 48.191 37.6776C47.2679 41.4588 46.8698 45.5496 47.0276 49.6336C47.1853 53.7176 47.8947 57.6853 49.1008 61.2297L62.7199 47.8885H78.446Z" fill="white"/>
<ellipse cx="70.3478" cy="47.8881" rx="8.09709" ry="18.9203" fill="#BAC5FF" stroke="black" stroke-width="1.11484"/>
<path fill-rule="evenodd" clip-rule="evenodd" d="M77.9047 54.6933C78.2533 52.5813 78.4444 50.2863 78.4444 47.8871C78.4444 37.4377 74.8192 28.9668 70.3473 28.9668C65.8754 28.9668 62.2502 37.4377 62.2502 47.8871C62.2502 50.2862 62.4413 52.581 62.7899 54.693C64.4493 49.7686 67.2154 46.544 70.3473 46.544C73.4792 46.544 76.2453 49.7688 77.9047 54.6933Z" fill="black"/>
<path d="M77.9047 54.6933L77.3765 54.8713L78.4547 54.7841L77.9047 54.6933ZM62.7899 54.693L62.2399 54.7838L63.3181 54.871L62.7899 54.693ZM77.887 47.8871C77.887 50.2572 77.6982 52.5217 77.3547 54.6025L78.4547 54.7841C78.8084 52.6408 79.0018 50.3155 79.0018 47.8871H77.887ZM70.3473 29.5242C71.2765 29.5242 72.2085 29.9619 73.1072 30.8501C74.0083 31.7407 74.8454 33.0571 75.5604 34.7277C76.9895 38.0671 77.887 42.7193 77.887 47.8871H79.0018C79.0018 42.6056 78.0868 37.7976 76.5853 34.2891C75.835 32.5359 74.9273 31.0815 73.8909 30.0572C72.8522 29.0306 71.6541 28.4094 70.3473 28.4094V29.5242ZM62.8077 47.8871C62.8077 42.7193 63.7052 38.0671 65.1343 34.7277C65.8493 33.0571 66.6863 31.7407 67.5874 30.8501C68.4861 29.9619 69.4181 29.5242 70.3473 29.5242V28.4094C69.0406 28.4094 67.8425 29.0306 66.8037 30.0572C65.7674 31.0815 64.8597 32.5359 64.1094 34.2891C62.6079 37.7976 61.6928 42.6056 61.6928 47.8871H62.8077ZM63.3399 54.6022C62.9965 52.5215 62.8077 50.2571 62.8077 47.8871H61.6928C61.6928 50.3154 61.8862 52.6406 62.2399 54.7838L63.3399 54.6022ZM63.3181 54.871C64.1318 52.4564 65.2056 50.4945 66.4291 49.1465C67.6518 47.7994 68.9872 47.1014 70.3473 47.1014V45.9866C68.5754 45.9866 66.9618 46.9009 65.6036 48.3972C64.2463 49.8926 63.1074 52.0052 62.2617 54.515L63.3181 54.871ZM70.3473 47.1014C71.7073 47.1014 73.0427 47.7995 74.2654 49.1466C75.489 50.4946 76.5628 52.4567 77.3765 54.8713L78.433 54.5153C77.5872 52.0054 76.4483 49.8928 75.091 48.3973C73.7328 46.9009 72.1192 45.9866 70.3473 45.9866V47.1014Z" fill="black"/>
<ellipse cx="70.3475" cy="47.8892" rx="3.64954" ry="8.52783" fill="black" stroke="black" stroke-width="1.11484"/>
<ellipse cx="70.9032" cy="37.5488" rx="4.20495" ry="8.58685" fill="white" stroke="black" stroke-width="1.11484"/>
<path d="M78.5437 48.5272C78.5437 33.3621 71.5028 21.0684 62.8175 21.0684C54.1321 21.0684 47.0913 33.3621 47.0913 48.5272C47.0913 56.3085 48.5765 60.3148 49.3191 61.3453" stroke="black" stroke-width="1.11484" stroke-linecap="round"/>
<path d="M47.0048 47.8846C47.0048 43.7918 46.4499 39.7539 45.383 36.0833C44.3162 32.4126 42.7659 29.2075 40.8522 26.716C38.9385 24.2245 36.7126 22.5133 34.3468 21.7148C31.9809 20.9164 29.5386 21.052 27.2086 22.1113C24.8786 23.1706 22.7234 25.1251 20.9099 27.8237C19.0963 30.5222 17.6729 33.8925 16.7498 37.6737C15.8267 41.4549 15.4286 45.5457 15.5864 49.6297C15.7442 53.7137 16.4535 57.6814 17.6596 61.2258L31.2788 47.8846H47.0048Z" fill="white"/>
<path d="M47.0051 48.5291C47.0051 33.3641 39.9643 21.0703 31.2789 21.0703C22.5936 21.0703 15.5527 33.3641 15.5527 48.5291C15.5527 56.3105 17.0379 60.3167 17.7805 61.3472" stroke="black" stroke-width="1.11484" stroke-linecap="round"/>
<ellipse cx="38.9047" cy="47.8842" rx="8.09709" ry="18.9203" fill="#BAC5FF" stroke="black" stroke-width="1.11484"/>
<path fill-rule="evenodd" clip-rule="evenodd" d="M46.4597 54.6893C46.8082 52.5773 46.9994 50.2824 46.9994 47.8832C46.9994 37.4338 43.3742 28.9629 38.9023 28.9629C34.4304 28.9629 30.8052 37.4338 30.8052 47.8832C30.8052 50.2824 30.9963 52.5772 31.3449 54.6892C33.0043 49.7648 35.7703 46.5401 38.9023 46.5401C42.0342 46.5401 44.8003 49.7648 46.4597 54.6893Z" fill="black"/>
<path d="M46.4597 54.6893L45.9314 54.8673L47.0096 54.78L46.4597 54.6893ZM31.3449 54.6892L30.7949 54.78L31.8731 54.8672L31.3449 54.6892ZM46.4419 47.8832C46.4419 50.2532 46.2531 52.5177 45.9097 54.5985L47.0096 54.78C47.3634 52.6368 47.5568 50.3116 47.5568 47.8832H46.4419ZM38.9023 29.5203C39.8315 29.5203 40.7635 29.958 41.6622 30.8462C42.5633 31.7368 43.4003 33.0531 44.1153 34.7238C45.5444 38.0632 46.4419 42.7154 46.4419 47.8832H47.5568C47.5568 42.6016 46.6417 37.7936 45.1402 34.2852C44.3899 32.532 43.4822 31.0776 42.4459 30.0533C41.4071 29.0267 40.209 28.4055 38.9023 28.4055V29.5203ZM31.3626 47.8832C31.3626 42.7154 32.2601 38.0632 33.6892 34.7238C34.4042 33.0531 35.2413 31.7368 36.1423 30.8462C37.0411 29.958 37.9731 29.5203 38.9023 29.5203V28.4055C37.5955 28.4055 36.3974 29.0267 35.3587 30.0533C34.3223 31.0776 33.4146 32.532 32.6643 34.2852C31.1628 37.7936 30.2478 42.6016 30.2478 47.8832H31.3626ZM31.8948 54.5985C31.5514 52.5177 31.3626 50.2532 31.3626 47.8832H30.2478C30.2478 50.3115 30.4411 52.6368 30.7949 54.78L31.8948 54.5985ZM31.8731 54.8672C32.6867 52.4527 33.7606 50.4907 34.9841 49.1427C36.2068 47.7956 37.5422 47.0975 38.9023 47.0975V45.9827C37.1304 45.9827 35.5168 46.897 34.1586 48.3934C32.8013 49.8888 31.6624 52.0014 30.8166 54.5112L31.8731 54.8672ZM38.9023 47.0975C40.2623 47.0975 41.5977 47.7956 42.8204 49.1427C44.0439 50.4907 45.1178 52.4527 45.9314 54.8673L46.9879 54.5113C46.1421 52.0014 45.0033 49.8888 43.6459 48.3934C42.2877 46.897 40.6741 45.9827 38.9023 45.9827V47.0975Z" fill="black"/>
<ellipse cx="38.9042" cy="47.8852" rx="3.64954" ry="8.52783" fill="black" stroke="black" stroke-width="1.11484"/>
<ellipse cx="41.1859" cy="40.1992" rx="4.20495" ry="8.58685" fill="white" stroke="black" stroke-width="1.11484"/>
<path d="M28.0457 68.5112C34.0449 57.5445 43.7556 57.5445 49.7564 68.5112H28.0457Z" fill="#51FFD6"/>
<path d="M28.0457 68.5112C34.0449 57.5445 43.7556 57.5445 49.7564 68.5112" stroke="black" stroke-width="1.11484" stroke-miterlimit="10"/>
<path d="M59.4922 68.5112C65.4914 57.5445 75.2021 57.5445 81.2029 68.5112H59.4922Z" fill="#51FFD6"/>
<path d="M59.4922 68.5112C65.4914 57.5445 75.2021 57.5445 81.2029 68.5112" stroke="black" stroke-width="1.11484" stroke-miterlimit="10"/>
<path d="M80.9317 29.6176C68.9349 33.1301 62.0685 26.2637 65.5799 14.2658L80.9317 29.6176Z" fill="#51FFD6"/>
<path d="M80.9317 29.6176C68.9349 33.1301 62.0685 26.2637 65.5799 14.2658" stroke="black" stroke-width="1.11484" stroke-miterlimit="10"/>
<path d="M33.3789 15.8613C33.6668 28.3584 25.2571 33.2137 14.5769 26.7167L33.3789 15.8613Z" fill="#51FFD6"/>
<path d="M33.3789 15.8613C33.6668 28.3584 25.2571 33.2137 14.5769 26.7167" stroke="black" stroke-width="1.11484" stroke-miterlimit="10"/>
</svg>
