<svg width="104" height="104" viewBox="0 0 104 104" fill="none" xmlns="http://www.w3.org/2000/svg">
<path d="M101.219 29.1467L55.7914 29.1467L27.138 3.25L27.138 31.9324C12.8894 37.0843 2.78076 50.0053 2.78076 65.1467C2.78076 84.8108 19.8284 100.75 40.86 100.75C61.8917 100.75 78.9393 84.8108 78.9393 65.1467C78.9393 60.6375 78.0323 56.3245 76.3939 52.3533L101.214 29.1467H101.219Z" fill="#51FFD6" stroke="#51FFD6" stroke-width="1.05534"/>
<path d="M36.6003 58.9012C36.4421 59.2074 36.2782 59.5072 36.1088 59.8004C36.255 59.5155 36.394 59.2216 36.5255 58.919L36.6003 58.9012ZM33.8437 62.9842C31.2842 65.9244 28.0366 67.8619 24.4997 68.7076C19.5249 69.8972 13.9589 68.931 8.90625 65.5241L18.2354 63.2951C21.6223 65.9104 25.3588 66.7493 28.6785 65.9554C30.601 65.4956 32.3713 64.4912 33.8437 62.9842Z" fill="black" stroke="black" stroke-width="0.527668"/>
<path d="M9.28 51.336L10.0605 51.2976C15.2962 45.0466 23.8885 43.9989 30.313 48.4289C31.7552 49.4233 33.4366 50.1181 35.2146 50.0286V50.0286C36.6904 49.9543 37.3882 48.2368 36.2304 47.3592C27.6621 40.8651 16.2158 42.3148 9.28 51.336Z" fill="black" stroke="black" stroke-width="0.527668"/>
<path d="M46.6465 58.9012C46.8047 59.2074 46.9686 59.5072 47.138 59.8004C46.9918 59.5155 46.8528 59.2216 46.7213 58.919L46.6465 58.9012ZM49.4031 62.9842C51.9626 65.9244 55.2103 67.8619 58.7471 68.7076C63.7219 69.8972 69.2879 68.931 74.3406 65.5241L65.0115 63.2951C61.6245 65.9104 57.8881 66.7493 54.5683 65.9554C52.6458 65.4956 50.8755 64.4912 49.4031 62.9842Z" fill="black" stroke="black" stroke-width="0.527668"/>
<path d="M73.9666 51.336L73.1861 51.2976C67.9504 45.0466 59.3581 43.9989 52.9336 48.4289C51.4914 49.4233 49.81 50.1181 48.0319 50.0286V50.0286C46.5562 49.9543 45.8583 48.2368 47.0162 47.3592C55.5844 40.8651 67.0307 42.3148 73.9666 51.336Z" fill="black" stroke="black" stroke-width="0.527668"/>
<line y1="-0.263834" x2="6.25956" y2="-0.263834" transform="matrix(0.244945 -0.969537 0.996175 0.0873833 16.1514 80.9932)" stroke="black" stroke-width="0.527668"/>
<line y1="-0.263834" x2="6.25956" y2="-0.263834" transform="matrix(0.244945 -0.969537 0.996175 0.0873833 19.8857 80.9932)" stroke="black" stroke-width="0.527668"/>
<line y1="-0.263834" x2="6.25956" y2="-0.263834" transform="matrix(0.244945 -0.969537 0.996175 0.0873833 23.6204 80.9932)" stroke="black" stroke-width="0.527668"/>
<line y1="-0.263834" x2="6.25956" y2="-0.263834" transform="matrix(0.244945 -0.969537 0.996175 0.0873833 27.355 80.9932)" stroke="black" stroke-width="0.527668"/>
<line y1="-0.263834" x2="6.25956" y2="-0.263834" transform="matrix(-0.244945 -0.969537 -0.996175 0.0873833 64.8936 80.9932)" stroke="black" stroke-width="0.527668"/>
<line y1="-0.263834" x2="6.25956" y2="-0.263834" transform="matrix(-0.244945 -0.969537 -0.996175 0.0873833 61.1592 80.9932)" stroke="black" stroke-width="0.527668"/>
<line y1="-0.263834" x2="6.25956" y2="-0.263834" transform="matrix(-0.244945 -0.969537 -0.996175 0.0873833 57.4246 80.9932)" stroke="black" stroke-width="0.527668"/>
<line y1="-0.263834" x2="6.25956" y2="-0.263834" transform="matrix(-0.244945 -0.969537 -0.996175 0.0873833 53.6902 80.9932)" stroke="black" stroke-width="0.527668"/>
</svg>
